<svg width="367" height="120" viewBox="0 0 367 120" fill="none" xmlns="http://www.w3.org/2000/svg">
<path fill-rule="evenodd" clip-rule="evenodd" d="M2.47973 117V120H0V117H2.47973ZM364.52 3V0H367V3H364.52ZM7.43919 117V120H12.3986V117H7.43919ZM17.3581 117V120H22.3176V117H17.3581ZM27.277 117V120H32.2365V117H27.277ZM37.1959 117V120H42.1554V117H37.1959ZM47.1149 117V120H52.0743V117H47.1149ZM57.0338 117V120H61.9932V117H57.0338ZM66.9527 117V120H71.9121V117H66.9527ZM76.8716 117V120H81.8311V117H76.8716ZM86.7905 117V120H91.75V117H86.7905ZM96.7094 117V120H101.669V117H96.7094ZM106.628 117V120H111.588V117H106.628ZM116.547 117V120H121.507V117H116.547ZM126.466 117V120H131.426V117H126.466ZM136.385 117V120H141.345V117H136.385ZM146.304 117V120H151.263V117H146.304ZM156.223 117V120H161.182V117H156.223ZM166.142 117V120H171.101V117H166.142ZM176.061 117V120H181.02V117H176.061ZM185.98 117V120H190.939V117H185.98ZM195.899 117V120H200.858V117H195.899ZM205.818 117V120H210.777V117H205.818ZM215.736 117V120H220.696V117H215.736ZM225.655 117V120H230.615V117H225.655ZM235.574 117V120H240.534V117H235.574ZM245.493 117V120H250.453V117H245.493ZM255.412 117V120H260.372V117H255.412ZM265.331 117V120H270.29V117H265.331ZM275.25 117V120H280.209V117H275.25ZM285.169 117V120H290.128V117H285.169ZM295.088 117V120H300.047V117H295.088ZM305.007 117V120H309.966V117H305.007ZM314.926 117V120H319.885V117H314.926ZM324.845 117V120H329.804V117H324.845ZM334.764 117V120H339.723V117H334.764ZM344.683 117V120H349.642V117H344.683ZM354.602 117V120H359.561V117H354.602ZM364.52 117V120H367V117H364.52ZM359.561 3V0H354.601V3H359.561ZM349.642 3V0H344.682V3H349.642ZM339.723 3V0H334.764V3H339.723ZM329.804 3V0H324.845V3H329.804ZM319.885 3V0H314.926V3H319.885ZM309.966 3V0H305.007V3H309.966ZM300.047 3V0H295.088V3H300.047ZM290.128 3V0H285.169V3H290.128ZM280.209 3V0H275.25V3H280.209ZM270.291 3V0H265.331V3H270.291ZM260.372 3V0H255.412V3H260.372ZM250.453 3V0H245.493V3H250.453ZM240.534 3V0H235.574V3H240.534ZM230.615 3V0H225.655V3H230.615ZM220.696 3V0H215.737V3H220.696ZM210.777 3V0H205.818V3H210.777ZM200.858 3V0H195.899V3H200.858ZM190.939 3V0H185.98V3H190.939ZM181.02 3V0H176.061V3H181.02ZM171.101 3V0H166.142V3H171.101ZM161.182 3V0H156.223V3H161.182ZM151.264 3V0H146.304V3H151.264ZM141.345 3V0H136.385V3H141.345ZM131.426 3V0H126.466V3H131.426ZM121.507 3V0H116.547V3H121.507ZM111.588 3V0H106.628V3H111.588ZM101.669 3V0H96.7095V3H101.669ZM91.75 3V0H86.7906V3H91.75ZM81.8311 3V0H76.8716V3H81.8311ZM71.9121 3V0H66.9527V3H71.9121ZM61.9932 3V0H57.0337V3H61.9932ZM52.0742 3V0H47.1148V3H52.0742ZM42.1553 3V0H37.1958V3H42.1553ZM32.2364 3V0H27.2769V3H32.2364ZM22.3174 3V0H17.3579V3H22.3174ZM12.3985 3V0H7.439V3H12.3985ZM2.47952 3V0H0V3H2.47952Z" fill="#0F6797"/>
<path fill-rule="evenodd" clip-rule="evenodd" d="M2.47973 117V120H0V117H2.47973ZM364.52 3V0H367V3H364.52ZM7.43919 117V120H12.3986V117H7.43919ZM17.3581 117V120H22.3176V117H17.3581ZM27.277 117V120H32.2365V117H27.277ZM37.1959 117V120H42.1554V117H37.1959ZM47.1149 117V120H52.0743V117H47.1149ZM57.0338 117V120H61.9932V117H57.0338ZM66.9527 117V120H71.9121V117H66.9527ZM76.8716 117V120H81.8311V117H76.8716ZM86.7905 117V120H91.75V117H86.7905ZM96.7094 117V120H101.669V117H96.7094ZM106.628 117V120H111.588V117H106.628ZM116.547 117V120H121.507V117H116.547ZM126.466 117V120H131.426V117H126.466ZM136.385 117V120H141.345V117H136.385ZM146.304 117V120H151.263V117H146.304ZM156.223 117V120H161.182V117H156.223ZM166.142 117V120H171.101V117H166.142ZM176.061 117V120H181.02V117H176.061ZM185.98 117V120H190.939V117H185.98ZM195.899 117V120H200.858V117H195.899ZM205.818 117V120H210.777V117H205.818ZM215.736 117V120H220.696V117H215.736ZM225.655 117V120H230.615V117H225.655ZM235.574 117V120H240.534V117H235.574ZM245.493 117V120H250.453V117H245.493ZM255.412 117V120H260.372V117H255.412ZM265.331 117V120H270.29V117H265.331ZM275.25 117V120H280.209V117H275.25ZM285.169 117V120H290.128V117H285.169ZM295.088 117V120H300.047V117H295.088ZM305.007 117V120H309.966V117H305.007ZM314.926 117V120H319.885V117H314.926ZM324.845 117V120H329.804V117H324.845ZM334.764 117V120H339.723V117H334.764ZM344.683 117V120H349.642V117H344.683ZM354.602 117V120H359.561V117H354.602ZM364.52 117V120H367V117H364.52ZM359.561 3V0H354.601V3H359.561ZM349.642 3V0H344.682V3H349.642ZM339.723 3V0H334.764V3H339.723ZM329.804 3V0H324.845V3H329.804ZM319.885 3V0H314.926V3H319.885ZM309.966 3V0H305.007V3H309.966ZM300.047 3V0H295.088V3H300.047ZM290.128 3V0H285.169V3H290.128ZM280.209 3V0H275.25V3H280.209ZM270.291 3V0H265.331V3H270.291ZM260.372 3V0H255.412V3H260.372ZM250.453 3V0H245.493V3H250.453ZM240.534 3V0H235.574V3H240.534ZM230.615 3V0H225.655V3H230.615ZM220.696 3V0H215.737V3H220.696ZM210.777 3V0H205.818V3H210.777ZM200.858 3V0H195.899V3H200.858ZM190.939 3V0H185.98V3H190.939ZM181.02 3V0H176.061V3H181.02ZM171.101 3V0H166.142V3H171.101ZM161.182 3V0H156.223V3H161.182ZM151.264 3V0H146.304V3H151.264ZM141.345 3V0H136.385V3H141.345ZM131.426 3V0H126.466V3H131.426ZM121.507 3V0H116.547V3H121.507ZM111.588 3V0H106.628V3H111.588ZM101.669 3V0H96.7095V3H101.669ZM91.75 3V0H86.7906V3H91.75ZM81.8311 3V0H76.8716V3H81.8311ZM71.9121 3V0H66.9527V3H71.9121ZM61.9932 3V0H57.0337V3H61.9932ZM52.0742 3V0H47.1148V3H52.0742ZM42.1553 3V0H37.1958V3H42.1553ZM32.2364 3V0H27.2769V3H32.2364ZM22.3174 3V0H17.3579V3H22.3174ZM12.3985 3V0H7.439V3H12.3985ZM2.47952 3V0H0V3H2.47952Z" fill="#0F6797"/>
<path d="M32.496 66.24C32.496 70.08 32.016 73.52 31.056 76.56C30.128 79.6 28.736 82.176 26.88 84.288C25.056 86.368 22.8 87.968 20.112 89.088C17.424 90.208 14.336 90.768 10.848 90.768C7.68001 90.768 4.44801 90.32 1.15201 89.424C1.21601 88.496 1.29601 87.584 1.39201 86.688C1.48801 85.76 1.56801 84.848 1.63201 83.952C1.69601 83.408 1.88801 82.976 2.20801 82.656C2.56001 82.304 3.08801 82.128 3.79201 82.128C4.36801 82.128 5.12001 82.272 6.04801 82.56C7.00801 82.848 8.28801 82.992 9.88801 82.992C12 82.992 13.888 82.672 15.552 82.032C17.216 81.392 18.608 80.4 19.728 79.056C20.848 77.712 21.696 76 22.272 73.92C22.88 71.808 23.184 69.312 23.184 66.432V21.216H32.496V66.24Z" fill="#0F6797"/>
<path d="M66.1703 40.608C69.7223 40.608 72.9223 41.2 75.7703 42.384C78.6183 43.568 81.0503 45.248 83.0663 47.424C85.0823 49.6 86.6183 52.24 87.6743 55.344C88.7623 58.416 89.3063 61.856 89.3063 65.664C89.3063 69.504 88.7623 72.96 87.6743 76.032C86.6183 79.104 85.0823 81.728 83.0663 83.904C81.0503 86.08 78.6183 87.76 75.7703 88.944C72.9223 90.096 69.7223 90.672 66.1703 90.672C62.5863 90.672 59.3543 90.096 56.4743 88.944C53.6263 87.76 51.1943 86.08 49.1783 83.904C47.1623 81.728 45.6103 79.104 44.5223 76.032C43.4663 72.96 42.9383 69.504 42.9383 65.664C42.9383 61.856 43.4663 58.416 44.5223 55.344C45.6103 52.24 47.1623 49.6 49.1783 47.424C51.1943 45.248 53.6263 43.568 56.4743 42.384C59.3543 41.2 62.5863 40.608 66.1703 40.608ZM66.1703 84C70.9703 84 74.5543 82.4 76.9223 79.2C79.2903 75.968 80.4743 71.472 80.4743 65.712C80.4743 59.92 79.2903 55.408 76.9223 52.176C74.5543 48.944 70.9703 47.328 66.1703 47.328C63.7383 47.328 61.6103 47.744 59.7863 48.576C57.9943 49.408 56.4903 50.608 55.2743 52.176C54.0903 53.744 53.1943 55.68 52.5863 57.984C52.0103 60.256 51.7223 62.832 51.7223 65.712C51.7223 71.472 52.9063 75.968 55.2743 79.2C57.6743 82.4 61.3063 84 66.1703 84Z" fill="#0F6797"/>
<path d="M108.735 78.288C110.303 80.4 112.015 81.888 113.871 82.752C115.759 83.616 117.823 84.048 120.063 84.048C124.639 84.048 128.143 82.432 130.575 79.2C133.007 75.968 134.223 71.152 134.223 64.752C134.223 58.8 133.135 54.432 130.959 51.648C128.815 48.832 125.743 47.424 121.743 47.424C118.959 47.424 116.527 48.064 114.447 49.344C112.399 50.624 110.495 52.432 108.735 54.768V78.288ZM108.735 48.384C110.783 46.016 113.087 44.128 115.647 42.72C118.239 41.312 121.215 40.608 124.575 40.608C127.423 40.608 129.983 41.152 132.255 42.24C134.559 43.328 136.511 44.912 138.111 46.992C139.711 49.04 140.927 51.536 141.759 54.48C142.623 57.424 143.055 60.736 143.055 64.416C143.055 68.352 142.575 71.936 141.615 75.168C140.655 78.4 139.263 81.168 137.439 83.472C135.647 85.744 133.455 87.52 130.863 88.8C128.271 90.048 125.359 90.672 122.127 90.672C118.927 90.672 116.223 90.08 114.015 88.896C111.839 87.68 109.935 85.968 108.303 83.76L107.871 88.176C107.615 89.392 106.879 90 105.663 90H100.143V19.296H108.735V48.384Z" fill="#0F6797"/>
<path d="M168.79 90.768C164.95 90.768 161.99 89.696 159.91 87.552C157.862 85.408 156.838 82.32 156.838 78.288V48.528H150.982C150.47 48.528 150.038 48.384 149.686 48.096C149.334 47.776 149.158 47.296 149.158 46.656V43.248L157.126 42.24L159.094 27.216C159.19 26.736 159.398 26.352 159.718 26.064C160.07 25.744 160.518 25.584 161.062 25.584H165.382V42.336H179.446V48.528H165.382V77.712C165.382 79.76 165.878 81.28 166.87 82.272C167.862 83.264 169.142 83.76 170.71 83.76C171.606 83.76 172.374 83.648 173.014 83.424C173.686 83.168 174.262 82.896 174.742 82.608C175.222 82.32 175.622 82.064 175.942 81.84C176.294 81.584 176.598 81.456 176.854 81.456C177.302 81.456 177.702 81.728 178.054 82.272L180.55 86.352C179.078 87.728 177.302 88.816 175.222 89.616C173.142 90.384 170.998 90.768 168.79 90.768Z" fill="#424242"/>
<path d="M196.38 51.12C197.916 47.792 199.804 45.2 202.044 43.344C204.284 41.456 207.02 40.512 210.252 40.512C211.276 40.512 212.252 40.624 213.18 40.848C214.14 41.072 214.988 41.424 215.724 41.904L215.1 48.288C214.908 49.088 214.428 49.488 213.66 49.488C213.212 49.488 212.556 49.392 211.692 49.2C210.828 49.008 209.852 48.912 208.764 48.912C207.228 48.912 205.852 49.136 204.636 49.584C203.452 50.032 202.38 50.704 201.42 51.6C200.492 52.464 199.644 53.552 198.876 54.864C198.14 56.144 197.468 57.616 196.86 59.28V90H188.268V41.376H193.164C194.092 41.376 194.732 41.552 195.084 41.904C195.436 42.256 195.676 42.864 195.804 43.728L196.38 51.12Z" fill="#424242"/>
<path d="M248.839 68.112C244.903 68.24 241.543 68.56 238.759 69.072C236.007 69.552 233.751 70.192 231.991 70.992C230.263 71.792 228.999 72.736 228.199 73.824C227.431 74.912 227.047 76.128 227.047 77.472C227.047 78.752 227.255 79.856 227.671 80.784C228.087 81.712 228.647 82.48 229.351 83.088C230.087 83.664 230.935 84.096 231.895 84.384C232.887 84.64 233.943 84.768 235.063 84.768C236.567 84.768 237.943 84.624 239.191 84.336C240.439 84.016 241.607 83.568 242.695 82.992C243.815 82.416 244.871 81.728 245.863 80.928C246.887 80.128 247.879 79.216 248.839 78.192V68.112ZM221.239 48.24C223.927 45.648 226.823 43.712 229.927 42.432C233.031 41.152 236.471 40.512 240.247 40.512C242.967 40.512 245.383 40.96 247.495 41.856C249.607 42.752 251.383 44 252.823 45.6C254.263 47.2 255.351 49.136 256.087 51.408C256.823 53.68 257.191 56.176 257.191 58.896V90H253.399C252.567 90 251.927 89.872 251.479 89.616C251.031 89.328 250.679 88.784 250.423 87.984L249.463 83.376C248.183 84.56 246.935 85.616 245.719 86.544C244.503 87.44 243.223 88.208 241.879 88.848C240.535 89.456 239.095 89.92 237.559 90.24C236.055 90.592 234.375 90.768 232.519 90.768C230.631 90.768 228.855 90.512 227.191 90C225.527 89.456 224.071 88.656 222.823 87.6C221.607 86.544 220.631 85.216 219.895 83.616C219.191 81.984 218.839 80.064 218.839 77.856C218.839 75.936 219.367 74.096 220.423 72.336C221.479 70.544 223.191 68.96 225.559 67.584C227.927 66.208 231.015 65.088 234.823 64.224C238.631 63.328 243.303 62.816 248.839 62.688V58.896C248.839 55.12 248.023 52.272 246.391 50.352C244.759 48.4 242.375 47.424 239.239 47.424C237.127 47.424 235.351 47.696 233.911 48.24C232.503 48.752 231.271 49.344 230.215 50.016C229.191 50.656 228.295 51.248 227.527 51.792C226.791 52.304 226.055 52.56 225.319 52.56C224.743 52.56 224.247 52.416 223.831 52.128C223.415 51.808 223.063 51.424 222.775 50.976L221.239 48.24Z" fill="#424242"/>
<path d="M278.798 78.288C280.366 80.4 282.078 81.888 283.934 82.752C285.79 83.616 287.869 84.048 290.173 84.048C294.717 84.048 298.206 82.432 300.638 79.2C303.07 75.968 304.285 71.36 304.285 65.376C304.285 62.208 303.998 59.488 303.422 57.216C302.878 54.944 302.078 53.088 301.022 51.648C299.966 50.176 298.67 49.104 297.134 48.432C295.598 47.76 293.853 47.424 291.901 47.424C289.117 47.424 286.669 48.064 284.557 49.344C282.477 50.624 280.558 52.432 278.798 54.768V78.288ZM278.366 48.912C280.414 46.384 282.782 44.352 285.47 42.816C288.158 41.28 291.229 40.512 294.685 40.512C297.501 40.512 300.046 41.056 302.318 42.144C304.59 43.2 306.525 44.784 308.125 46.896C309.725 48.976 310.958 51.568 311.822 54.672C312.686 57.776 313.117 61.344 313.117 65.376C313.117 68.96 312.637 72.304 311.677 75.408C310.717 78.48 309.325 81.152 307.501 83.424C305.709 85.664 303.502 87.44 300.878 88.752C298.286 90.032 295.358 90.672 292.094 90.672C289.118 90.672 286.558 90.176 284.414 89.184C282.302 88.16 280.43 86.752 278.798 84.96V106.464H270.206V41.376H275.341C276.557 41.376 277.31 41.968 277.598 43.152L278.366 48.912Z" fill="#424242"/>
<path d="M332.61 78.288C334.178 80.4 335.89 81.888 337.746 82.752C339.602 83.616 341.682 84.048 343.986 84.048C348.53 84.048 352.018 82.432 354.45 79.2C356.882 75.968 358.098 71.36 358.098 65.376C358.098 62.208 357.81 59.488 357.234 57.216C356.69 54.944 355.89 53.088 354.834 51.648C353.778 50.176 352.482 49.104 350.946 48.432C349.41 47.76 347.666 47.424 345.714 47.424C342.93 47.424 340.482 48.064 338.37 49.344C336.29 50.624 334.37 52.432 332.61 54.768V78.288ZM332.178 48.912C334.226 46.384 336.594 44.352 339.282 42.816C341.97 41.28 345.042 40.512 348.498 40.512C351.314 40.512 353.858 41.056 356.13 42.144C358.402 43.2 360.338 44.784 361.938 46.896C363.538 48.976 364.77 51.568 365.634 54.672C366.498 57.776 366.93 61.344 366.93 65.376C366.93 68.96 366.45 72.304 365.49 75.408C364.53 78.48 363.138 81.152 361.314 83.424C359.522 85.664 357.314 87.44 354.69 88.752C352.098 90.032 349.17 90.672 345.906 90.672C342.93 90.672 340.37 90.176 338.226 89.184C336.114 88.16 334.242 86.752 332.61 84.96V106.464H324.018V41.376H329.154C330.37 41.376 331.122 41.968 331.41 43.152L332.178 48.912Z" fill="#424242"/>
</svg>
